<svg width="300" height="300" viewBox="0 0 300 300" fill="none" xmlns="http://www.w3.org/2000/svg">
  <rect width="300" height="300" rx="36" fill="#171716"/>
  <path d="M91.8003 223C90.319 223 89.0397 222.461 87.9623 221.384C86.885 220.307 86.3463 219.027 86.3463 217.546V87.054C86.3463 85.5727 86.885 84.2933 87.9623 83.216C89.0397 82.1387 90.319 81.6 91.8003 81.6H149.976C162.77 81.6 174.149 83.7547 184.114 88.064C194.08 92.3733 202.025 98.7027 207.95 107.052C213.876 115.401 217.04 125.434 217.444 137.15C217.714 144.691 217.848 149.809 217.848 152.502C217.848 155.061 217.714 159.976 217.444 167.248C216.636 185.832 210.307 199.77 198.456 209.062C186.74 218.354 170.917 223 150.986 223H91.8003ZM149.976 183.61C154.69 183.61 158.46 182.263 161.288 179.57C164.251 176.742 165.867 172.635 166.136 167.248C166.406 163.343 166.54 158.293 166.54 152.098C166.54 145.769 166.406 140.786 166.136 137.15C165.867 131.763 164.116 127.723 160.884 125.03C157.787 122.337 153.814 120.99 148.966 120.99H136.846V183.61H149.976Z" fill="#F4C41A"/>
</svg>
